<svg xmlns="http://www.w3.org/2000/svg" width="129" height="28" viewBox="0 0 129 28">
    <g fill="none" fill-rule="evenodd">
        <path fill="#F2125E" fill-rule="nonzero" d="M45.14 22C40.734 22 38 18.938 38 14.007c0-4.952 2.724-8.004 7.128-8.004 3.532 0 6.257 2.26 6.58 5.438h-2.735c-.388-1.827-1.885-3.01-3.845-3.01-2.638 0-4.285 2.134-4.285 5.565 0 3.443 1.647 5.575 4.296 5.575 1.97 0 3.467-1.077 3.844-2.787h2.735C51.352 19.899 48.725 22 45.14 22zm14.32-10.084c-1.593 0-2.713 1.12-2.831 2.809h5.545c-.054-1.71-1.109-2.809-2.713-2.809zm2.736 6.526h2.53c-.484 2.1-2.455 3.41-5.233 3.41-3.467 0-5.556-2.249-5.556-5.966 0-3.716 2.12-6.05 5.534-6.05 3.36 0 5.374 2.186 5.374 5.829v.844h-8.227v.138c.064 1.921 1.195 3.125 2.95 3.125 1.325 0 2.24-.475 2.628-1.33zm5.437 3.178V5.602h2.67V21.62h-2.67zm10.984-9.704c-1.594 0-2.714 1.12-2.832 2.809h5.545c-.054-1.71-1.109-2.809-2.713-2.809zm2.735 6.526h2.53c-.484 2.1-2.455 3.41-5.233 3.41-3.467 0-5.556-2.249-5.556-5.966 0-3.716 2.121-6.05 5.534-6.05 3.36 0 5.374 2.186 5.374 5.829v.844h-8.227v.138c.065 1.921 1.195 3.125 2.95 3.125 1.325 0 2.24-.475 2.628-1.33zm5.06-5.069c0-2.09 1.939-3.537 4.717-3.537 2.8 0 4.555 1.214 4.749 3.316h-2.51c-.193-.813-.98-1.33-2.228-1.33-1.217 0-2.132.57-2.132 1.403 0 .655.56 1.056 1.744 1.32l2.078.465c2.25.496 3.295 1.447 3.295 3.147 0 2.217-2.078 3.695-5.017 3.695-2.94 0-4.792-1.246-4.997-3.347h2.638c.259.855 1.088 1.362 2.423 1.362 1.346 0 2.283-.58 2.283-1.436 0-.655-.506-1.066-1.626-1.31l-2.089-.474c-2.261-.507-3.327-1.531-3.327-3.274zM99.68 7.24h2.66v2.903h2.52v2.09h-2.52v5.671c0 1.14.495 1.647 1.615 1.647.377 0 .581-.02.904-.052v2.048a7.707 7.707 0 0 1-1.4.127c-2.702 0-3.78-.898-3.78-3.136v-6.304h-1.862v-2.09h1.863V7.238zm7.882 14.38V10.07h2.66v11.55h-2.66zm1.324-13.462a1.584 1.584 0 0 1-1.593-1.573c0-.877.721-1.584 1.593-1.584.883 0 1.594.707 1.594 1.584 0 .876-.71 1.573-1.594 1.573zm8.669 11.594c1.615 0 2.82-1.024 2.82-2.365v-.919l-2.659.169c-1.497.095-2.196.623-2.196 1.563 0 .971.85 1.552 2.035 1.552zm-.786 2.059c-2.272 0-3.898-1.352-3.898-3.463 0-2.091 1.604-3.295 4.468-3.464l3.037-.18v-.97c0-1.13-.775-1.764-2.218-1.764-1.228 0-2.068.422-2.315 1.204h-2.52c.215-2.038 2.164-3.337 4.964-3.337 3.026 0 4.727 1.447 4.727 3.896v7.888h-2.574v-1.584h-.183c-.656 1.12-1.949 1.774-3.488 1.774zm9.562-.19V5.602H129V21.62h-2.67z"/>
        <g>
            <circle cx="14" cy="14" r="14" fill="#F2125E"/>
            <g fill="#FFF">
                <path d="M6.078 18.861v-5.267a4.544 4.544 0 1 1 9.088 0v5.267H6.079z" opacity=".428"/>
                <path d="M20.884 9v9.811H6z"/>
            </g>
        </g>
    </g>
</svg>
